<svg version="1.2" baseProfile="tiny" xmlns="http://www.w3.org/2000/svg" viewBox="0 0 550 105"><linearGradient id="a" gradientUnits="userSpaceOnUse" x1="-11.796" y1="27.341" x2="48.392" y2="76.081"><stop offset=".308" stop-color="#3bbac9"/><stop offset=".388" stop-color="#3098a8"/></linearGradient><path fill="url(#a)" d="M10.7 3.6s-6.5 0-6.5 6.5v83.1s0 6.5 6.5 6.5h15.2s6.5 0 6.5-6.5v-83s0-6.5-6.5-6.5H10.7z"/><linearGradient id="b" gradientUnits="userSpaceOnUse" x1=".642" y1="50.166" x2="35.954" y2="53.256"><stop offset="0" stop-color="#3bbac9"/><stop offset=".216" stop-color="#3bbac9" stop-opacity="0"/></linearGradient><path fill="url(#b)" d="M10.7 3.6s-6.5 0-6.5 6.5v83.1s0 6.5 6.5 6.5h15.2s6.5 0 6.5-6.5v-83s0-6.5-6.5-6.5H10.7z"/><linearGradient id="c" gradientUnits="userSpaceOnUse" x1="-5.488" y1="79.617" x2="92.281" y2="18.525"><stop offset=".246" stop-color="#04839c"/><stop offset=".295" stop-color="#006279"/></linearGradient><path fill="url(#c)" d="M9.2 50.9L4.7 93.3s-.7 6.5 5.8 6.5H26s6.5 0 7.2-6.5l4-36s.7-6.5-5.8-6.5h-.3s6.5 0 11.2-4.5L82.1 8.2s4.7-4.5-1.8-4.5H54s-6.5 0-10.6 5.1L9.2 50.9z"/><linearGradient id="d" gradientUnits="userSpaceOnUse" x1="20.712" y1="34.456" x2="57.568" y2="60.263"><stop offset="0" stop-color="#04839c"/><stop offset=".121" stop-color="#04839c" stop-opacity="0"/></linearGradient><path fill="url(#d)" d="M9.2 50.9L4.7 93.3s-.7 6.5 5.8 6.5H26s6.5 0 7.2-6.5l4-36s.7-6.5-5.8-6.5h-.3s6.5 0 11.2-4.5L82.1 8.2s4.7-4.5-1.8-4.5H54s-6.5 0-10.6 5.1L9.2 50.9z"/><path fill="#19A0B3" d="M17.9 50.9h22s6.5 0 10.8-4.9l32-37.3s4.2-4.9-2.3-4.9H54s-6.5 0-10 5.5L17.9 50.9"/><path fill="#3BBAC9" d="M17.9 50.9h21.9s6.5 0 11.2 4.6l40.5 39.8s4.6 4.6-1.9 4.6H58.9s-6.5 0-10.3-5.3L17.9 50.9M97.5 14.5V3.7h27.6v83.5l8.7 1.8v10.8H98.4V89l8.7-1.8V16.4l-9.6-1.9zM180.3 99.8c-.5-1.1-.9-2.2-1.3-3.4-.4-1.2-.7-2.3-.9-3.5-2.1 2.5-4.7 4.5-7.8 6-3.1 1.5-6.6 2.3-10.5 2.3-6.5 0-11.7-1.8-15.6-5.3-3.8-3.6-5.8-8.4-5.8-14.5 0-6.2 2.5-11.1 7.5-14.5 5-3.4 12.4-5.1 22.1-5.1h9.2v-6.5c0-3.2-.9-5.7-2.8-7.5-1.8-1.8-4.6-2.6-8.2-2.6-2.1 0-3.9.2-5.5.7-1.6.5-2.9 1-3.9 1.7l-1.2 7.1H142l.1-14.8c3.3-2.2 7.1-4.1 11.3-5.6 4.3-1.5 8.9-2.3 13.9-2.3 8.3 0 15 2 20.1 6.1 5.2 4 7.7 9.8 7.7 17.3v30.4c0 .9.1 1.8.2 2.6l5.5.7v10.8h-20.5zm-15.6-12c2.7 0 5.2-.6 7.4-1.8 2.2-1.2 3.9-2.6 5.2-4.4V71.5h-9.2c-3.8 0-6.7.9-8.7 2.7-2 1.8-3 3.9-3 6.4 0 2.3.7 4 2.2 5.3 1.5 1.2 3.5 1.9 6.1 1.9zM206.6 89l8.6-1.8V45.8l-9.5-1.8V33.1H232l.8 9.7c1.6-3.4 3.6-6.1 6-8.1 2.5-1.9 5.3-2.9 8.6-2.9.9 0 1.9.1 3 .2 1 .1 1.9.3 2.6.5L251.1 49l-7.4-.2c-2.6 0-4.8.5-6.5 1.5-1.7 1-3 2.5-3.9 4.4v32.4l8.6 1.8v10.8h-35.2V89zM255.1 65.8c0-9.9 2.8-18.1 8.3-24.4 5.6-6.3 13.3-9.5 23.1-9.5 9.9 0 17.6 3.2 23.1 9.5 5.6 6.3 8.3 14.5 8.3 24.5v1.3c0 10-2.8 18.2-8.3 24.5s-13.2 9.5-23 9.5c-9.9 0-17.6-3.2-23.2-9.5-5.6-6.3-8.3-14.5-8.3-24.5v-1.4zm18 1.3c0 6.1 1.1 11 3.2 14.6 2.1 3.7 5.6 5.5 10.3 5.5 4.6 0 8-1.8 10.2-5.5 2.2-3.7 3.2-8.6 3.2-14.6v-1.3c0-5.9-1.1-10.7-3.3-14.5-2.2-3.7-5.6-5.6-10.3-5.6-4.7 0-8.1 1.9-10.2 5.6-2.1 3.7-3.2 8.6-3.2 14.5v1.3z"/><path fill="#E61F5C" d="M416.6 44l-6.7.9L396 99.8h-15l-12.4-39.7h-.4l-12.4 39.7h-15l-14-54.9-6.7-.9V33.1h30.2V44l-7.1 1.4 6.3 30.5h.4l12.4-42.7h12.1L386.9 76h.4l6.2-30.6-7.1-1.4V33.1h30.2V44zM450.5 101.1c-9.6 0-17.3-3.1-23-9.2-5.7-6.2-8.6-14-8.6-23.5v-2.5c0-9.9 2.7-18 8.2-24.5s12.7-9.6 21.9-9.5c9 0 16 2.7 20.9 8.1 5 5.4 7.5 12.8 7.5 22v9.8h-39.8l-.1.4c.3 4.4 1.8 8 4.4 10.8 2.6 2.8 6.1 4.3 10.6 4.3 4 0 7.3-.4 9.9-1.2 2.6-.8 5.5-2.1 8.6-3.8l4.9 11.1c-2.8 2.2-6.3 4-10.7 5.5-4.5 1.4-9.3 2.2-14.7 2.2zm-1.6-55.3c-3.3 0-6 1.3-7.9 3.8-1.9 2.5-3.1 5.9-3.6 10l.2.3h22.1v-1.6c0-3.8-.9-6.9-2.7-9.1s-4.5-3.4-8.1-3.4zM547.3 68.3c0 9.9-2.2 17.9-6.7 23.8-4.4 6-10.8 8.9-19.2 8.9-3.9 0-7.3-.8-10.2-2.4-2.9-1.6-5.3-4-7.3-7.1l-1.3 8.2h-15.5V16.4l-9.5-1.8V3.7h27.5v36.5c1.9-2.7 4.2-4.7 6.9-6.2 2.7-1.4 5.8-2.2 9.3-2.2 8.5 0 14.9 3.2 19.3 9.6 4.4 6.4 6.7 14.9 6.7 25.5v1.4zM529.4 67c0-6.5-1-11.6-2.9-15.4-1.9-3.8-5.2-5.7-9.8-5.7-2.8 0-5.2.6-7.1 1.8-1.9 1.2-3.4 2.8-4.6 5v28.1c1.1 2.1 2.6 3.6 4.6 4.7 1.9 1.1 4.3 1.6 7.2 1.6 4.6 0 7.9-1.6 9.7-4.9 1.8-3.3 2.8-7.9 2.8-13.9V67z"/></svg>